name C:\Users\tom_v\MusculoskeletalSpecialization_revisited\Results\Case_18\motion.mot
datacolumns 32
datarows 13
range 0.00000000 0.05597480
endheader 
time	pelvis_tilt	pelvis_list	pelvis_rotation	pelvis_tx	pelvis_ty	pelvis_tz	hip_flexion_r	hip_adduction_r	hip_rotation_r	knee_angle_r	ankle_angle_r	subtalar_angle_r	mtp_angle_r	hip_flexion_l	hip_adduction_l	hip_rotation_l	knee_angle_l	ankle_angle_l	subtalar_angle_l	mtp_angle_l	lumbar_extension	lumbar_bending	lumbar_rotation	arm_flex_r	arm_add_r	arm_rot_r	elbow_flex_r	arm_flex_l	arm_add_l	arm_rot_l	elbow_flex_l	
          0.00000000	         -5.34230911	         -3.84382003	          3.72989494	          0.00000000	          0.96776710	          0.00347580	         28.33315417	          3.71942442	         -5.05427077	         -8.57349511	          8.54872253	          0.99726581	         -1.36034601	         13.24094025	        -10.33629911	         -5.96317699	        -62.67620765	         -7.94236480	          8.21976125	          3.68869584	        -13.32734063	          6.73511018	        -12.87567552	         13.98421490	         -9.59713614	        -12.69828763	          1.25688424	          8.10954614	        -25.83889705	         15.77241961	         62.14614056	
          0.00466457	         -5.80479424	         -3.17065574	          2.11235647	          0.04277707	          0.96513005	          0.00208562	         26.47590388	          3.24373053	         -4.51885386	         -7.25459269	          4.79231488	          1.97040113	          3.00545596	         15.11872464	         -8.92674869	         -5.64559564	        -63.69128185	         -6.35772530	          8.72863789	          1.26829489	        -12.41637413	          6.24250274	        -10.16085221	         17.32567664	        -11.60766254	        -10.81263422	          0.07048071	         11.32365697	        -20.83610929	         19.17132016	         45.00673916	
          0.00932913	         -6.22338156	         -2.35750362	          0.63987265	          0.08561780	          0.96189861	          0.00059846	         24.61843706	          2.49920881	         -4.03841686	         -6.15954049	          2.21300486	          2.43298926	          4.20449636	         17.11540310	         -7.45728100	         -5.32362455	        -64.74396608	         -5.19757369	          8.93489189	         -3.58315314	        -11.53456224	          5.62481173	         -7.76518689	         20.31242342	        -13.76664024	         -9.53447015	          0.47730838	         13.87502246	        -15.27144373	         18.74269116	         27.40638913	
          0.01399370	         -6.62367000	         -1.41613715	         -0.69456393	          0.12849031	          0.95795458	         -0.00078803	         22.80644469	          1.53260171	         -3.66329051	         -5.25214825	         -0.29723085	          1.76625003	          5.24221188	         19.26923986	         -5.97656975	         -5.03859917	        -65.85072027	         -5.12303785	          8.97295574	         -3.55636432	        -10.66803411	          4.87204341	         -5.67721287	         22.61424773	        -15.90757636	        -11.11264630	          3.57462365	         15.43692977	        -10.46190245	         13.91295294	         12.16131582	
          0.01865827	         -7.08699748	         -0.36695438	         -1.92103530	          0.17151028	          0.95323447	         -0.00197392	         21.11699789	          0.38347813	         -3.51975632	         -4.50053917	         -3.45786020	          0.40295925	          6.42111675	         21.61237121	         -4.52858050	         -4.83656952	        -67.01337106	         -4.84686162	          9.33051731	          0.24284144	         -9.71702217	          4.03623224	         -3.86599649	         23.76097975	        -17.90371682	        -13.05804276	         10.28922725	         15.24928028	         -7.58232916	          5.54206815	          2.52221694	
          0.02332283	         -7.60537268	          0.72570942	         -3.11407338	          0.21476979	          0.94794937	         -0.00288744	         19.57772578	         -0.83306955	         -3.87733451	         -4.20813274	         -7.85412962	          0.04597666	          7.85157728	         24.06903003	         -3.21572023	         -4.79754853	        -68.18437443	         -3.34456870	         10.06634315	          2.19844416	         -8.71072146	          3.21466708	         -2.23100112	         23.47244071	        -19.96658562	        -12.76106926	         21.11393403	         12.49860548	         -6.49297718	         -3.87622870	          0.00171543	
          0.02798740	         -8.21076356	          1.28420357	         -4.63461375	          0.25775849	          0.94292920	         -0.00297158	         18.56217722	         -1.18884496	         -1.89053817	         -6.49240142	         -2.83753933	          0.63289352	          8.98027827	         26.65065955	         -2.86516620	         -5.07581410	        -69.36822498	         -1.74736257	         10.80126919	          3.86711776	         -7.79014135	          3.01974190	         -0.30203696	         22.15352340	        -22.80590444	         -9.84266489	         35.36742062	          6.74562883	         -6.06009334	        -10.95112077	          4.97475638	
          0.03265197	         -8.68954975	          1.16942006	         -6.40761398	          0.30031594	          0.93906293	         -0.00227447	         17.41344304	         -0.53074861	          1.65777447	         -8.75293335	          1.42815437	         -1.41597027	         11.63548798	         29.06585273	         -3.55785398	         -5.44270215	        -70.49131512	          0.32733979	         11.41360024	         -1.13854880	         -7.28972110	          3.54934814	          1.81477816	         21.08364852	        -26.74723112	         -5.37081748	         50.70197359	         -1.77861003	         -5.82447489	        -13.17066343	         16.66589049	
          0.03731653	         -8.92302898	          0.97323194	         -8.14031053	          0.34245553	          0.93631070	         -0.00126113	         15.93473348	          0.20541914	          5.23810546	        -10.67539736	          3.75215332	         -4.17009941	         15.26002664	         31.23168312	         -4.40931262	         -5.71757781	        -71.35963206	          0.34078721	         11.26835743	         -0.66430865	         -7.22942910	          4.06383183	          3.73230386	         21.43682112	        -31.39006202	         -0.05284520	         65.03686923	        -11.67870337	         -6.21410339	        -12.70387673	         31.40634861	
          0.04198110	         -8.92522139	          1.09779665	         -9.60525847	          0.38436109	          0.93432216	         -0.00033851	         14.16904324	          0.34453055	          7.92130392	        -12.38340411	          5.51424421	         -6.01671735	         19.08448150	         33.17417397	         -4.79427824	         -5.80597275	        -71.92554244	          0.01894025	         11.06312722	          4.12987433	         -7.39921664	          4.09427620	          5.22303264	         23.75301787	        -36.07146923	          5.90952940	         77.52987352	        -21.63363399	         -7.34278421	        -11.87299796	         45.54119271	
          0.04664567	         -8.94750668	          1.64183101	        -10.71782197	          0.42615651	          0.93259164	          0.00036302	         12.44860690	         -0.24515827	          9.39780276	        -13.91398687	          6.87866336	         -6.71527403	         23.14098262	         35.18220464	         -4.58712590	         -5.70304056	        -72.22893179	          1.34610792	         11.29104016	          4.60102905	         -7.38993896	          3.59295265	          6.27731281	         27.83741296	        -39.92295341	         11.83511902	         88.07232584	        -31.06462667	         -9.03137608	        -11.50716589	         57.21131073	
          0.05131023	         -9.23516473	          2.53951218	        -11.56425617	          0.46780587	          0.93084286	          0.00103194	         11.15650809	         -1.36243373	          9.93853528	        -15.42916066	          7.56617211	         -6.64617807	         27.81758870	         37.54298921	         -4.00467714	         -5.53495719	        -72.26780772	          2.64684079	         11.45967001	          5.19646927	         -6.91083597	          2.69195326	          7.09730557	         32.82446895	        -42.19096284	         16.66377072	         96.74721469	        -39.79951671	        -11.12950185	        -11.78587869	         65.77152066	
          0.05597480	         -9.80002585	          3.71488586	        -12.28432829	          0.50930947	          0.92916917	          0.00195987	         10.39417505	         -2.80637343	          9.96518799	        -17.07420733	          7.35333643	         -6.27488363	         33.27185674	         40.20786584	         -3.28272411	         -5.47965773	        -72.01437795	          3.57055184	         11.42833976	          5.79606959	         -5.96735513	          1.47283230	          7.92223554	         37.50713763	        -42.45131323	         19.25192071	        103.64512862	        -47.73620119	        -13.63747142	        -12.58076884	         71.00336201	
